<?xml version="1.0" standalone="no"?><!DOCTYPE svg PUBLIC "-//W3C//DTD SVG 1.1//EN" "http://www.w3.org/Graphics/SVG/1.1/DTD/svg11.dtd"><svg t="1780752304559" class="icon" viewBox="0 0 1024 1024" version="1.1" xmlns="http://www.w3.org/2000/svg" p-id="15888" xmlns:xlink="http://www.w3.org/1999/xlink" width="200" height="200"><path d="M213.333333 853.333333m21.333334 0l554.666666 0q21.333333 0 21.333334 21.333334l0 0q0 21.333333-21.333334 21.333333l-554.666666 0q-21.333333 0-21.333334-21.333333l0 0q0-21.333333 21.333334-21.333334Z" fill="#2E59A7" p-id="15889"></path><path d="M490.666667 725.333333h42.666666v128h-42.666666z" fill="#2E59A7" p-id="15890"></path><path d="M810.666667 149.333333H213.333333A106.666667 106.666667 0 0 0 106.666667 256v384A106.666667 106.666667 0 0 0 213.333333 746.666667h597.333334a106.666667 106.666667 0 0 0 106.666666-106.666667V256A106.666667 106.666667 0 0 0 810.666667 149.333333z m-597.333334 42.666667h597.333334A64 64 0 0 1 874.666667 256v384a64 64 0 0 1-64 64H213.333333A64 64 0 0 1 149.333333 640V256A64 64 0 0 1 213.333333 192z" fill="#2E59A7" p-id="15891"></path><path d="M128 170.666667m85.333333 0l597.333334 0q85.333333 0 85.333333 85.333333l0 384q0 85.333333-85.333333 85.333333l-597.333334 0q-85.333333 0-85.333333-85.333333l0-384q0-85.333333 85.333333-85.333333Z" fill="#2E59A7" p-id="15892"></path><path d="M326.229333 333.568a21.333333 21.333333 0 0 1 32.64 27.221333l-2.432 2.986667-75.52 75.392 75.52 75.434667a21.333333 21.333333 0 0 1 2.432 27.221333l-2.432 2.944a21.333333 21.333333 0 0 1-27.221333 2.474667l-2.986667-2.474667-90.453333-90.538667a21.333333 21.333333 0 0 1-2.517333-27.178666l2.474666-2.986667 90.496-90.496z" fill="#FFFFFF" p-id="15893"></path><path d="M564.962951 284.179615m19.334566 9.015856l0 0q19.334566 9.015856 10.31871 28.350422l-126.221988 270.683926q-9.015856 19.334566-28.350422 10.31871l0 0q-19.334566-9.015856-10.31871-28.350422l126.221987-270.683926q9.015856-19.334566 28.350423-10.31871Z" fill="#6992DC" p-id="15894"></path><path d="M697.770667 333.568a21.333333 21.333333 0 0 0-32.64 27.221333l2.432 2.986667 75.52 75.392-75.52 75.434667a21.333333 21.333333 0 0 0-2.432 27.221333l2.432 2.944a21.333333 21.333333 0 0 0 27.221333 2.474667l2.986667-2.474667 90.453333-90.538667a21.333333 21.333333 0 0 0 2.517333-27.178666l-2.474666-2.986667-90.496-90.496z" fill="#FFFFFF" p-id="15895"></path></svg>